<svg width="21.500000" height="20.864746" viewBox="0 0 21.5 20.8647" fill="none" xmlns="http://www.w3.org/2000/svg" xmlns:xlink="http://www.w3.org/1999/xlink">
	<desc>
			Created with Pixso.
	</desc>
	<defs/>
	<mask id="mask210_62019" maskUnits="userSpaceOnUse" x="0.000000" y="0.000000" width="21.500000" height="20.864746">
		<path id="形状结合" d="M21.2256 9.80273C21.5784 9.43115 21.5894 8.8584 21.2683 8.47461L21.1882 8.38916L13.5029 1.09814C12.0095 -0.318848 9.69556 -0.364746 8.14893 0.960938L7.99707 1.09814L0.311768 8.38916C-0.0888672 8.76953 -0.105469 9.40234 0.274658 9.80273C0.627441 10.1748 1.19849 10.2158 1.59912 9.91553L1.68823 9.84033L9.37354 2.54883C10.1084 1.85205 11.2407 1.81885 12.0134 2.44971L12.1265 2.54883L19.8118 9.84033C20.2124 10.2202 20.8455 10.2036 21.2256 9.80273ZM1.75 17.8647L1.75 11.1982L10.0618 3.2749C10.439 2.91699 11.0276 2.9082 11.4028 3.24219L11.4382 3.2749L19.75 11.1982L19.75 17.8647C19.75 19.522 18.4067 20.8647 16.75 20.8647L4.75 20.8647C3.09326 20.8647 1.75 19.522 1.75 17.8647ZM10.75 12.1147C9.09326 12.1147 7.75 13.458 7.75 15.1147L7.75 18.8647L13.75 18.8647L13.75 15.1147C13.75 13.458 12.4067 12.1147 10.75 12.1147Z" clip-rule="evenodd" fill="#0A59F7" fill-opacity="1.000000" fill-rule="evenodd"/>
	</mask>
	<path id="形状结合" d="M21.2256 9.80273C21.5784 9.43115 21.5894 8.8584 21.2683 8.47461L21.1882 8.38916L13.5029 1.09814C12.0095 -0.318848 9.69556 -0.364746 8.14893 0.960938L7.99707 1.09814L0.311768 8.38916C-0.0888672 8.76953 -0.105469 9.40234 0.274658 9.80273C0.627441 10.1748 1.19849 10.2158 1.59912 9.91553L1.68823 9.84033L9.37354 2.54883C10.1084 1.85205 11.2407 1.81885 12.0134 2.44971L12.1265 2.54883L19.8118 9.84033C20.2124 10.2202 20.8455 10.2036 21.2256 9.80273ZM1.75 17.8647L1.75 11.1982L10.0618 3.2749C10.439 2.91699 11.0276 2.9082 11.4028 3.24219L11.4382 3.2749L19.75 11.1982L19.75 17.8647C19.75 19.522 18.4067 20.8647 16.75 20.8647L4.75 20.8647C3.09326 20.8647 1.75 19.522 1.75 17.8647ZM10.75 12.1147C9.09326 12.1147 7.75 13.458 7.75 15.1147L7.75 18.8647L13.75 18.8647L13.75 15.1147C13.75 13.458 12.4067 12.1147 10.75 12.1147Z" clip-rule="evenodd" fill="#0A59F7" fill-opacity="1.000000" fill-rule="evenodd"/>
</svg>
