<svg width="24.000000" height="24.000000" viewBox="0 0 24 24" fill="none" xmlns="http://www.w3.org/2000/svg" xmlns:xlink="http://www.w3.org/1999/xlink">
	<desc>
			Created with Pixso.
	</desc>
	<defs>
		<clipPath id="clip210_62084">
			<rect id="svg" width="24.000000" height="24.000000" fill="white" fill-opacity="0"/>
		</clipPath>
	</defs>
	<g opacity="0.600000">
		<g clip-path="url(#clip210_62084)">
			<g opacity="0.000000">
				<rect id="rect" width="24.000000" height="24.000000" fill="#000000" fill-opacity="1.000000"/>
			</g>
			<path id="path" d="M10.63 18.16C10.42 18.16 10.24 18.23 10.09 18.37C9.93 18.52 9.86 18.7 9.86 18.9C9.86 19.11 9.93 19.29 10.09 19.43C10.24 19.58 10.42 19.65 10.63 19.65L13.38 19.65C13.59 19.65 13.77 19.58 13.91 19.43C14.06 19.29 14.13 19.11 14.13 18.9C14.13 18.7 14.06 18.52 13.91 18.37C13.77 18.23 13.59 18.16 13.38 18.16L10.63 18.16ZM12.74 11.44L12.74 9.9L15.02 9.9C15.23 9.9 15.4 9.83 15.55 9.69C15.69 9.55 15.77 9.37 15.77 9.16C15.77 8.96 15.69 8.78 15.55 8.63C15.4 8.49 15.23 8.41 15.02 8.41L12.93 8.41L15.55 5.68C15.69 5.52 15.76 5.34 15.76 5.14C15.74 4.94 15.66 4.77 15.53 4.62C15.37 4.46 15.18 4.39 14.98 4.39C14.76 4.41 14.59 4.5 14.47 4.65L12.02 7.21L9.58 4.65C9.43 4.5 9.25 4.41 9.05 4.41C8.84 4.41 8.66 4.48 8.52 4.62C8.36 4.77 8.28 4.94 8.28 5.14C8.28 5.34 8.34 5.52 8.46 5.68L11.11 8.41L9.02 8.41C8.81 8.41 8.63 8.49 8.5 8.63C8.35 8.78 8.28 8.96 8.28 9.16C8.28 9.37 8.35 9.55 8.5 9.69C8.63 9.83 8.81 9.9 9.02 9.9L11.26 9.9L11.26 11.44L9 11.44C8.79 11.44 8.61 11.52 8.46 11.65C8.33 11.8 8.26 11.98 8.26 12.18C8.26 12.39 8.33 12.57 8.46 12.71C8.61 12.86 8.79 12.93 9 12.93L11.26 12.93L11.26 15C11.26 15.2 11.33 15.38 11.47 15.52C11.61 15.66 11.79 15.73 12 15.73C12.2 15.73 12.38 15.66 12.53 15.52C12.66 15.38 12.74 15.2 12.74 15L12.74 12.93L15 12.93C15.2 12.93 15.38 12.86 15.53 12.71C15.66 12.57 15.74 12.39 15.74 12.18C15.74 11.98 15.66 11.8 15.53 11.65C15.38 11.52 15.2 11.44 15 11.44L12.74 11.44Z" fill="#000000" fill-opacity="0.901961" fill-rule="nonzero"/>
			<path id="path" d="M6.05 1C5.5 1 5 1.14 4.55 1.41C4.09 1.68 3.72 2.04 3.45 2.5C3.18 2.96 3.05 3.46 3.05 4L3.05 19.98C3.05 20.53 3.18 21.03 3.45 21.48C3.72 21.94 4.09 22.31 4.55 22.57C5 22.85 5.5 22.98 6.05 22.98L17.95 22.98C18.49 22.98 18.99 22.85 19.45 22.57C19.91 22.31 20.27 21.94 20.54 21.48C20.81 21.03 20.95 20.53 20.95 19.98L20.95 4C20.95 3.46 20.81 2.96 20.54 2.5C20.27 2.04 19.91 1.68 19.45 1.41C18.99 1.14 18.49 1 17.95 1L6.05 1ZM19.43 19.98C19.43 20.38 19.29 20.73 19.01 21.03C18.72 21.33 18.37 21.48 17.95 21.48L6.05 21.48C5.65 21.48 5.3 21.33 5 21.03C4.7 20.73 4.56 20.38 4.56 19.98L4.56 4C4.56 3.58 4.7 3.23 4.98 2.94C5.27 2.66 5.63 2.51 6.05 2.51L17.95 2.51C18.37 2.51 18.72 2.66 19.01 2.94C19.29 3.23 19.43 3.58 19.43 4L19.43 19.98Z" fill="#000000" fill-opacity="0.901961" fill-rule="nonzero"/>
		</g>
	</g>
</svg>
