<svg width="24.000000" height="24.000000" viewBox="0 0 24 24" fill="none" xmlns="http://www.w3.org/2000/svg" xmlns:xlink="http://www.w3.org/1999/xlink">
	<desc>
			Created with Pixso.
	</desc>
	<defs>
		<clipPath id="clip210_62115">
			<rect id="svg" width="24.000000" height="24.000000" fill="white" fill-opacity="0"/>
		</clipPath>
	</defs>
	<g opacity="0.600000">
		<g clip-path="url(#clip210_62115)">
			<g opacity="0.000000">
				<rect id="rect" width="24.000000" height="24.000000" fill="#000000" fill-opacity="1.000000"/>
			</g>
			<path id="path" d="M1.78 11.35C1.78 12.59 2.08 13.8 2.67 14.98C3.28 16.14 4.1 17.16 5.15 18.02C5.35 18.16 5.4 18.42 5.3 18.8C5.2 19.18 5.04 19.68 4.8 20.3L4.65 20.64C4.6 20.76 4.58 20.9 4.6 21.05C4.6 21.18 4.65 21.31 4.75 21.41C4.86 21.55 4.96 21.63 5.06 21.66C5.15 21.68 5.29 21.68 5.46 21.64C6.14 21.5 6.7 21.34 7.15 21.16C7.62 20.99 8.09 20.77 8.59 20.52C8.73 20.43 8.95 20.31 9.12 20.24C9.28 20.17 9.41 20.12 9.53 20.1C10.31 20.27 11.13 20.35 12 20.35C13.84 20.35 15.54 19.94 17.11 19.14C18.67 18.33 19.92 17.24 20.86 15.85C21.78 14.48 22.25 12.98 22.25 11.35C22.25 9.71 21.78 8.2 20.86 6.83C19.92 5.44 18.67 4.34 17.11 3.54C15.54 2.73 13.84 2.33 12 2.33C10.15 2.33 8.45 2.73 6.89 3.54C5.32 4.34 4.08 5.44 3.15 6.83C2.23 8.2 1.78 9.71 1.78 11.35ZM3.34 11.35C3.34 9.99 3.72 8.73 4.5 7.58C5.27 6.43 6.32 5.52 7.65 4.83C8.98 4.16 10.43 3.82 12 3.82C13.56 3.82 15.01 4.16 16.33 4.83C17.65 5.52 18.7 6.43 19.48 7.58C20.25 8.73 20.64 9.99 20.64 11.35C20.64 12.71 20.25 13.96 19.48 15.12C18.7 16.27 17.65 17.18 16.33 17.85C15.01 18.52 13.56 18.85 12 18.85C11.28 18.85 10.56 18.79 9.86 18.64C9.59 18.58 9.33 18.59 9.07 18.68C8.81 18.77 8.48 18.92 8.09 19.12L7.48 19.41C7.2 19.54 6.9 19.67 6.6 19.8C6.78 19.19 6.86 18.58 6.82 18.08C6.76 17.58 6.52 17.16 6.1 16.85C5.21 16.14 4.54 15.31 4.06 14.35C3.58 13.39 3.34 12.39 3.34 11.35Z" fill="#000000" fill-opacity="0.901961" fill-rule="nonzero"/>
			<path id="path" d="M6.91 10.29C6.55 10.29 6.25 10.42 6 10.66C5.74 10.91 5.62 11.22 5.62 11.58C5.62 11.94 5.74 12.24 6 12.5C6.25 12.75 6.55 12.88 6.91 12.88C7.27 12.88 7.59 12.75 7.85 12.5C8.1 12.24 8.23 11.94 8.23 11.58C8.23 11.23 8.1 10.93 7.85 10.67C7.59 10.42 7.27 10.29 6.91 10.29ZM10.7 11.58C10.7 11.94 10.83 12.24 11.09 12.5C11.34 12.75 11.64 12.88 12 12.88C12.36 12.88 12.67 12.75 12.92 12.5C13.17 12.24 13.3 11.94 13.3 11.58C13.3 11.22 13.17 10.91 12.92 10.66C12.67 10.42 12.36 10.29 12 10.29C11.64 10.29 11.34 10.42 11.09 10.66C10.83 10.91 10.7 11.22 10.7 11.58ZM15.79 11.58C15.79 11.94 15.92 12.24 16.18 12.5C16.43 12.75 16.73 12.88 17.09 12.88C17.45 12.88 17.76 12.75 18.01 12.5C18.25 12.24 18.38 11.94 18.38 11.58C18.38 11.22 18.25 10.91 18.01 10.66C17.76 10.42 17.45 10.29 17.09 10.29C16.73 10.29 16.43 10.42 16.18 10.66C15.92 10.91 15.79 11.22 15.79 11.58Z" fill="#000000" fill-opacity="0.901961" fill-rule="nonzero"/>
		</g>
	</g>
</svg>
