<svg width="24.000000" height="24.000000" viewBox="0 0 24 24" fill="none" xmlns="http://www.w3.org/2000/svg" xmlns:xlink="http://www.w3.org/1999/xlink">
	<desc>
			Created with Pixso.
	</desc>
	<defs>
		<clipPath id="clip210_62059">
			<rect id="svg" width="24.000000" height="24.000000" fill="white" fill-opacity="0"/>
		</clipPath>
	</defs>
	<g opacity="0.600000">
		<g clip-path="url(#clip210_62059)">
			<g opacity="0.000000">
				<rect id="rect" width="24.000000" height="24.000000" fill="#000000" fill-opacity="1.000000"/>
			</g>
			<path id="path" d="M20.51 16.39C20.27 16.66 19.89 16.99 19.35 17.37C18.81 17.76 18.21 18.17 17.53 18.62L16.96 19.01C15.88 19.7 14.98 20.21 14.25 20.52C13.53 20.82 12.76 20.98 11.95 20.98C11.08 20.98 10.16 20.82 9.17 20.51C8.19 20.19 7.05 19.69 5.75 19.01C4.94 18.56 4.34 18.18 3.96 17.87C3.59 17.55 3.36 17.28 3.27 17.04C3.18 16.81 3.13 16.52 3.13 16.18C3.13 15.08 3.19 14.34 3.31 13.96C3.43 13.56 3.67 13.31 4.03 13.22C4.39 13.12 5.11 13.08 6.18 13.08L6.3 13.08L7.31 13.08C7.97 13.08 8.54 13.09 9.03 13.12C9.52 13.16 9.96 13.22 10.36 13.31L10.79 13.43L14.47 14.54C14.53 14.57 14.58 14.58 14.61 14.58C14.95 14.75 15.2 14.91 15.35 15.08C15.51 15.25 15.57 15.51 15.52 15.85C15.45 16.15 15.29 16.33 15.05 16.41C14.82 16.5 14.51 16.5 14.13 16.41C14.07 16.41 14.02 16.41 13.99 16.39L12.76 16.1L10.29 15.58C9.92 15.5 9.65 15.47 9.47 15.5C9.3 15.53 9.2 15.66 9.18 15.89C9.18 15.9 9.18 15.99 9.18 16.02C9.2 16.2 9.28 16.33 9.4 16.39C9.53 16.47 9.71 16.53 9.95 16.58L10.07 16.6C12.75 17.25 14.18 17.56 14.37 17.56C14.71 17.58 15.01 17.52 15.28 17.41C15.56 17.29 16.01 17.02 16.65 16.62C17.39 16.14 18.15 15.68 18.93 15.24C19.31 15.03 19.63 14.91 19.87 14.87C20.13 14.83 20.36 14.91 20.56 15.12C20.76 15.31 20.84 15.52 20.82 15.74C20.81 15.96 20.71 16.18 20.51 16.39ZM1.62 16.18C1.62 16.78 1.73 17.31 1.93 17.75C2.15 18.18 2.5 18.61 2.98 19.02C3.47 19.42 4.15 19.86 5.03 20.33C6.44 21.08 7.69 21.62 8.77 21.96C9.87 22.29 10.92 22.46 11.92 22.46C12.93 22.46 13.88 22.27 14.77 21.89C15.67 21.52 16.81 20.88 18.18 19.97C19.34 19.21 20.21 18.61 20.79 18.16C21.37 17.7 21.81 17.22 22.09 16.74C22.39 16.25 22.45 15.73 22.26 15.18C22.09 14.62 21.79 14.18 21.36 13.85C20.95 13.53 20.46 13.37 19.91 13.37C19.63 13.37 19.29 13.43 18.91 13.58C18.54 13.72 18.11 13.93 17.63 14.21C17.3 14.41 16.96 14.62 16.6 14.83C16.6 14.65 16.56 14.47 16.48 14.29C16.38 14.1 16.25 13.96 16.07 13.85C15.93 13.75 15.61 13.6 15.12 13.39C14.64 13.2 14.1 12.99 13.5 12.79C12.67 12.51 11.93 12.29 11.27 12.1C10.62 11.92 9.99 11.78 9.37 11.68C9.03 11.66 8.67 11.65 8.29 11.64C7.93 11.64 7.54 11.64 7.12 11.64C6.86 11.62 6.45 11.62 5.87 11.62L4.19 11.58C3.63 11.57 3.15 11.76 2.75 12.16C2.34 12.54 2.04 13.05 1.86 13.68C1.7 14.41 1.62 15.24 1.62 16.18Z" fill="#000000" fill-opacity="0.901961" fill-rule="nonzero"/>
			<path id="path" d="M17.02 14.58C17.27 14.41 17.48 14.29 17.66 14.23C18.4 13.6 18.91 12.88 19.2 12.06C19.48 11.25 19.63 10.27 19.63 9.13C19.63 7.76 19.28 6.49 18.6 5.32C17.91 4.16 16.98 3.23 15.82 2.53C14.64 1.85 13.36 1.5 11.98 1.5C10.6 1.5 9.32 1.85 8.16 2.53C6.99 3.23 6.06 4.16 5.38 5.32C4.68 6.49 4.34 7.76 4.34 9.13C4.34 9.59 4.38 10.04 4.47 10.48C4.56 10.93 4.67 11.31 4.8 11.61L6.41 11.63C6.25 11.39 6.11 11.04 6 10.56C5.88 10.09 5.83 9.62 5.83 9.16C5.83 8.04 6.1 7.01 6.66 6.06C7.21 5.12 7.96 4.38 8.9 3.82C9.84 3.27 10.88 3 12 3C13.1 3 14.12 3.27 15.06 3.82C15.99 4.38 16.73 5.12 17.29 6.06C17.84 7.01 18.12 8.03 18.12 9.13C18.12 10.09 17.93 10.96 17.56 11.71C17.18 12.48 16.6 13.14 15.84 13.73C16.08 13.85 16.26 14.01 16.38 14.19C16.5 14.37 16.57 14.58 16.61 14.82L17.02 14.58ZM9.38 11.68C9.99 11.78 10.62 11.92 11.28 12.1C11.93 12.28 12.67 12.51 13.51 12.78L15.74 10.53C16.11 10.15 16.3 9.69 16.31 9.16C16.31 8.64 16.12 8.18 15.74 7.79L13.37 5.39C13 5.01 12.54 4.81 11.99 4.81C11.43 4.81 10.97 5.01 10.61 5.39L8.22 7.79C7.85 8.18 7.66 8.64 7.67 9.17C7.67 9.71 7.86 10.16 8.22 10.53L9.38 11.68ZM9.29 9.47C9.21 9.39 9.17 9.29 9.17 9.16C9.17 9.04 9.21 8.93 9.29 8.85L11.69 6.47C11.78 6.38 11.88 6.33 12 6.33C12.11 6.33 12.21 6.38 12.31 6.47L14.69 8.85C14.77 8.93 14.81 9.04 14.81 9.16C14.81 9.29 14.77 9.39 14.69 9.47L12.31 11.87C12.21 11.96 12.11 12 11.99 12C11.87 12 11.77 11.96 11.69 11.87L9.29 9.47Z" fill="#000000" fill-opacity="0.901961" fill-rule="nonzero"/>
		</g>
	</g>
</svg>
